PathFileType	4	(X/Y/Z)	C:\Users\WrightLab\Desktop\Jo\P4V12.trc
DataRate	CameraRate	NumFrames	NumMarkers	Units	OrigDataRate	OrigDataStartFrame	OrigNumFrames
100.00	100.00	       8	19	mm	100.00	76	       602
Frame#	Time	Headset_Front			Headset_Back			Headset_Left			Headset_Right			Left_Shoulder			Right_Shoulder			Sternum			C7			Left Elbow			Right Elbow			Left Wrist			Right Wrist			Left ASIS			Right ASIS			S2			Left Knee			Right Knee			Left Ankle			Right Ankle			
		X1	Y1	Z1	X2	Y2	Z2	X3	Y3	Z3	X4	Y4	Z4	X5	Y5	Z5	X6	Y6	Z6	X7	Y7	Z7	X8	Y8	Z8	X9	Y9	Z9	X10	Y10	Z10	X11	Y11	Z11	X12	Y12	Z12	X13	Y13	Z13	X14	Y14	Z14	X15	Y15	Z15	X16	Y16	Z16	X17	Y17	Z17	X18	Y18	Z18	X19	Y19	Z19	

76	0.750	204.61397	1593.63135	1910.96399	144.40361	1072.40979	1965.23608							55.59541	1541.47156	1848.13477	354.57764	1543.32178	1905.87195	68.00774	1708.44116	1796.85889				-172.61835	1258.74280	1764.72400	501.49030	1034.55481	1656.27966	-214.36029	1193.44409	1464.12244	493.31537	1188.92615	1899.75110				388.54330	1054.04285	1846.30652				127.92474	579.10217	1664.95618	346.93118	579.71460	1977.77966	209.10631	90.36569	1657.29724	196.15524	151.46327	2228.13696	
77	0.760	205.57568	1593.62085	1903.44727	145.30644	1072.64697	1955.88354							56.86195	1541.01318	1839.29858	356.40030	1543.07373	1896.20435	68.32952	1709.63806	1791.12341				-171.36974	1258.19946	1759.31421	502.88007	1035.88147	1647.40381	-214.71468	1190.89917	1459.21765	494.70792	1187.91626	1889.26001				389.63058	1055.24084	1836.95361				130.07739	578.87115	1656.52930	350.47491	579.96576	1967.52148	210.23799	90.90926	1655.87683	197.86020	155.60132	2224.29199	
78	0.770	206.85146	1594.54980	1895.23486	147.24756	1072.17126	1945.17212							57.02916	1541.72388	1831.84473	356.94717	1543.63513	1888.74670	69.35777	1709.16052	1782.11499				-170.61890	1257.25378	1753.16125	503.65961	1034.96936	1638.40796	-215.19180	1187.69324	1453.70630	495.44067	1187.84485	1880.01746				391.01938	1054.56445	1825.95483				131.69398	579.00580	1645.92078	354.53577	580.51892	1956.53369				199.44212	160.18123	2220.40503	
79	0.780	207.86533	1594.93115	1886.20471	148.18402	1073.22290	1935.44788							58.67987	1542.26245	1823.61792	358.34659	1544.25427	1880.34851	69.73366	1709.77649	1773.16394				-169.29668	1256.73584	1747.07947	505.15417	1036.38647	1629.78796	-215.24812	1185.19751	1448.74829	497.02072	1188.88171	1869.94153	75.27400	1052.66040	1717.16077	393.67908	1055.30396	1820.25574				132.40280	580.40814	1638.46301	359.86429	582.07135	1947.29419				200.73904	166.61116	2216.93042	
80	0.790	208.83919	1595.69922	1877.70203	149.93674	1073.97546	1925.76440							59.63417	1542.92285	1815.55005	358.75311	1544.97595	1872.70483	70.32368	1710.32349	1765.21118				-167.87012	1256.59521	1741.45044	504.92410	1035.81921	1621.20374	-215.70529	1182.68384	1443.60645	497.88452	1189.70398	1861.63293	75.97758	1053.64502	1705.28369	394.67484	1056.33960	1810.41882				134.04851	581.11285	1629.95288	363.63913	582.07666	1933.09766				203.25458	173.01526	2211.24731	
81	0.800	210.13481	1596.35742	1869.34119	150.88489	1074.39954	1915.98291							59.87489	1543.62622	1808.06836	359.86850	1545.91614	1863.41040	71.53159	1710.53906	1757.23633				-167.12346	1256.29736	1735.71570	506.75143	1036.84412	1611.76025	-215.79134	1179.87585	1437.80835	498.46490	1191.28357	1853.58191	76.68222	1054.29980	1697.00623	395.40640	1056.85620	1799.75732				135.11169	581.89868	1620.91370	370.41812	583.06427	1920.38611				205.11464	179.27425	2205.11450	
82	0.810	211.07587	1597.47400	1861.14929	152.19919	1075.31189	1906.55920							61.37755	1545.18835	1799.29370	360.64551	1546.60706	1854.30347	71.49151	1711.88879	1750.12708				-165.47083	1256.18140	1729.64771	506.78183	1036.70813	1603.00623	-215.87784	1177.43372	1433.53821	499.58890	1192.10938	1844.38672	77.06509	1055.98254	1688.50293	395.88147	1057.27014	1785.43518				135.31923	582.33453	1611.44885	376.07309	583.64203	1906.69458				206.60991	186.64777	2198.74731	
83	0.820	212.11591	1597.94690	1852.51904	153.58350	1075.62903	1897.34717							62.32316	1546.07202	1791.28467	361.65314	1547.31763	1844.63501	72.38432	1711.67810	1740.56055				-164.17282	1256.47180	1724.25415	508.16522	1036.80371	1593.17761	-215.92671	1175.41980	1428.20166	500.58670	1192.97644	1834.42542	77.57453	1057.04443	1678.56067	396.40311	1058.40027	1777.10974				135.49295	582.72668	1604.82764	381.76862	584.11749	1893.03174				209.20581	194.03874	2190.61865	
